<?xml version="1.0" encoding="UTF-8" standalone="no"?>
<!-- Created with Inkscape (http://www.inkscape.org/) -->

<svg
   xmlns:dc="http://purl.org/dc/elements/1.1/"
   xmlns:cc="http://creativecommons.org/ns#"
   xmlns:rdf="http://www.w3.org/1999/02/22-rdf-syntax-ns#"
   xmlns:svg="http://www.w3.org/2000/svg"
   xmlns="http://www.w3.org/2000/svg"
   xmlns:xlink="http://www.w3.org/1999/xlink"
   xmlns:sodipodi="http://sodipodi.sourceforge.net/DTD/sodipodi-0.dtd"
   xmlns:inkscape="http://www.inkscape.org/namespaces/inkscape"
   width="744.09448819"
   height="1052.3622047"
   id="svg2"
   version="1.1"
   inkscape:version="0.48.4 r9939"
   sodipodi:docname="死亡吐舌头.svg"
   inkscape:export-filename="C:\Documents and Settings\Administrator\桌面\inkscape\sucai\死亡吐舌头.png"
   inkscape:export-xdpi="120.95"
   inkscape:export-ydpi="120.95">
  <defs
     id="defs4">
    <linearGradient
       inkscape:collect="always"
       id="linearGradient3843">
      <stop
         style="stop-color:#f9f9f9;stop-opacity:1;"
         offset="0"
         id="stop3845" />
      <stop
         style="stop-color:#f9f9f9;stop-opacity:0;"
         offset="1"
         id="stop3847" />
    </linearGradient>
    <radialGradient
       inkscape:collect="always"
       xlink:href="#linearGradient3843"
       id="radialGradient3856"
       gradientUnits="userSpaceOnUse"
       gradientTransform="matrix(1,0,0,0.61550501,-5.7142853,36.145997)"
       cx="385.71429"
       cy="309.50504"
       fx="385.71429"
       fy="309.50504"
       r="297.14286" />
  </defs>
  <sodipodi:namedview
     id="base"
     pagecolor="#ffffff"
     bordercolor="#666666"
     borderopacity="1.0"
     inkscape:pageopacity="0.0"
     inkscape:pageshadow="2"
     inkscape:zoom="0.12374369"
     inkscape:cx="1451.328"
     inkscape:cy="769.62851"
     inkscape:document-units="px"
     inkscape:current-layer="layer1"
     showgrid="false"
     inkscape:window-width="768"
     inkscape:window-height="459"
     inkscape:window-x="501"
     inkscape:window-y="241"
     inkscape:window-maximized="0" />
  <metadata
     id="metadata7">
    <rdf:RDF>
      <cc:Work
         rdf:about="">
        <dc:format>image/svg+xml</dc:format>
        <dc:type
           rdf:resource="http://purl.org/dc/dcmitype/StillImage" />
        <dc:title></dc:title>
      </cc:Work>
    </rdf:RDF>
  </metadata>
  <g
     inkscape:label="Layer 1"
     inkscape:groupmode="layer"
     id="layer1">
    <g
       id="g3852"
       transform="translate(-9.7846588,295.31118)">
      <path
         sodipodi:nodetypes="sssss"
         inkscape:connector-curvature="0"
         id="path3822"
         d="m 537.14287,306.64789 c 0,121.50264 -86.52793,78.91304 -203.29671,78.91304 -116.76877,0 -219.56044,42.5896 -219.56044,-78.91304 0,-121.50265 94.6598,-220.000002 211.42857,-220.000002 116.76878,0 211.42858,98.497352 211.42858,220.000002 z"
         style="color:#000000;fill:#976b6b;fill-opacity:1;fill-rule:nonzero;stroke:none;stroke-width:0.30000001;marker:none;visibility:visible;display:inline;overflow:visible;enable-background:accumulate"
         transform="matrix(1.4054054,0,0,1.1948052,-86.332049,-59.736602)" />
      <path
         sodipodi:nodetypes="sssss"
         inkscape:connector-curvature="0"
         id="path3822-2"
         d="m 677.14287,306.61214 c 0,145.17198 -121.60682,94.28571 -285.71429,94.28571 -164.10746,0 -308.571439,50.88627 -308.571439,-94.28571 0,-145.172 133.035399,-262.857163 297.142859,-262.857163 164.10748,0 297.14287,117.685163 297.14287,262.857163 z"
         style="color:#000000;fill:url(#radialGradient3856);fill-opacity:1;fill-rule:nonzero;stroke:none;stroke-width:0.30000001;marker:none;visibility:visible;display:inline;overflow:visible;enable-background:accumulate" />
    </g>
    <g
       id="g3904"
       transform="translate(917.21851,254.55844)">
      <path
         transform="matrix(0.83090925,0,0,1.0768594,-896.62965,21.568823)"
         d="m 368.57143,203.79076 c 0,36.29299 -29.42128,65.71428 -65.71428,65.71428 -36.293,0 -65.71429,-29.42129 -65.71429,-65.71428 0,-36.293 29.42129,-65.71429 65.71429,-65.71429 36.293,0 65.71428,29.42129 65.71428,65.71429 z"
         sodipodi:ry="65.714287"
         sodipodi:rx="65.714287"
         sodipodi:cy="203.79076"
         sodipodi:cx="302.85715"
         id="path3858"
         style="color:#000000;fill:#ffffff;fill-opacity:1;fill-rule:nonzero;stroke:none;stroke-width:0.30000001;marker:none;visibility:visible;display:inline;overflow:visible;enable-background:accumulate"
         sodipodi:type="arc" />
      <path
         inkscape:transform-center-y="10.101525"
         inkscape:connector-curvature="0"
         id="rect3862"
         d="m -657.16625,213.44183 c -0.82661,2.73313 -0.48584,5.83083 1.20654,8.60502 l 12.30318,20.15208 -10.1217,27.28733 c -2.15417,5.80751 1.32689,12.30812 7.79544,14.55731 6.46855,2.24919 13.42585,-0.62186 15.58002,-6.42938 l 3.15337,-8.50122 4.89545,8.00478 c 3.38473,5.54837 10.86909,7.75059 16.78739,4.92187 5.91831,-2.82871 7.94636,-9.57645 4.56164,-15.12483 l -15.81348,-25.92306 7.80178,-21.03301 c 2.15419,-5.80751 -1.33548,-12.28495 -7.80402,-14.53414 -6.46854,-2.24919 -13.41725,0.59869 -15.57143,6.40621 l -0.83345,2.24692 -1.37658,-2.25698 c -3.38472,-5.54838 -10.87769,-7.72742 -16.79599,-4.89871 -2.95915,1.41436 -4.94155,3.78667 -5.76816,6.51981 z"
         style="color:#000000;fill:#000000;fill-opacity:1;fill-rule:nonzero;stroke:none;stroke-width:0.30000001;marker:none;visibility:visible;display:inline;overflow:visible;enable-background:accumulate" />
      <path
         transform="matrix(0.83090925,0,0,1.0768594,-716.31698,20.745546)"
         d="m 368.57143,203.79076 c 0,36.29299 -29.42128,65.71428 -65.71428,65.71428 -36.293,0 -65.71429,-29.42129 -65.71429,-65.71428 0,-36.293 29.42129,-65.71429 65.71429,-65.71429 36.293,0 65.71428,29.42129 65.71428,65.71429 z"
         sodipodi:ry="65.714287"
         sodipodi:rx="65.714287"
         sodipodi:cy="203.79076"
         sodipodi:cx="302.85715"
         id="path3858-1"
         style="color:#000000;fill:#ffffff;fill-opacity:1;fill-rule:nonzero;stroke:none;stroke-width:0.30000001;marker:none;visibility:visible;display:inline;overflow:visible;enable-background:accumulate"
         sodipodi:type="arc" />
      <path
         inkscape:transform-center-y="10.101525"
         inkscape:connector-curvature="0"
         id="rect3862-6"
         d="m -501.09724,214.63885 c -0.82661,2.73313 -0.48584,5.83083 1.20654,8.60502 l 12.30318,20.15208 -10.1217,27.28733 c -2.15417,5.80751 1.32689,12.30812 7.79544,14.55731 6.46855,2.24919 13.42585,-0.62186 15.58002,-6.42938 l 3.15337,-8.50122 4.89545,8.00478 c 3.38473,5.54837 10.86909,7.75059 16.78739,4.92187 5.91831,-2.82871 7.94636,-9.57645 4.56164,-15.12483 l -15.81348,-25.92306 7.80178,-21.03301 c 2.15419,-5.80751 -1.33548,-12.28495 -7.80402,-14.53414 -6.46854,-2.24919 -13.41725,0.59869 -15.57143,6.40621 l -0.83345,2.24692 -1.37658,-2.25698 c -3.38472,-5.54838 -10.87769,-7.72742 -16.79599,-4.89871 -2.95915,1.41436 -4.94155,3.78667 -5.76816,6.51981 z"
         style="color:#000000;fill:#000000;fill-opacity:1;fill-rule:nonzero;stroke:none;stroke-width:0.30000001;marker:none;visibility:visible;display:inline;overflow:visible;enable-background:accumulate" />
    </g>
    <path
       style="color:#000000;fill:#4d4d4d;fill-opacity:1;fill-rule:nonzero;stroke:none;stroke-width:0.30000001;marker:none;visibility:visible;display:inline;overflow:visible;enable-background:accumulate"
       d="m 291.93414,626.07778 c 61.5835,-43.21234 115.4774,-28.96567 165.665,0 6.301,3.6366 13.132,5.85687 13.132,13.13199 0,7.27512 -7.0486,17.12192 -13.132,13.13198 -61.2472,-40.17046 -115.8391,-35.97193 -165.665,0 -5.8985,4.25847 -13.132,-5.85686 -13.132,-13.13198 0,-7.27512 7.1767,-8.95324 13.132,-13.13199 z"
       id="rect3917"
       inkscape:connector-curvature="0"
       sodipodi:nodetypes="sssssss" />
  </g>
  <g
     inkscape:groupmode="layer"
     id="layer2"
     inkscape:label="层">
    <path
       style="color:#000000;fill:#ff5555;fill-opacity:1;fill-rule:nonzero;stroke:none;stroke-width:0.30000001;marker:none;visibility:visible;display:inline;overflow:visible;enable-background:accumulate"
       d="m 465.38304,689.64864 c 12.8746,-8.71671 -0.5961,-5.60393 -1.5462,-22.16473 -0.5814,-10.13425 7.5265,-23.94809 7.3522,-34.28717 -28.8162,-18.23703 -64.3588,-31.75858 -78.9837,-32.263 -5.0379,0.47986 -5.4898,3.94559 -8.9591,6.74825 -10.5217,10.57336 3.8521,50.0744 25.7557,71.03847 18.4851,17.69215 42.9144,18.98423 56.3811,10.92818 z"
       id="path3912-8"
       inkscape:connector-curvature="0"
       sodipodi:nodetypes="cscccsc" />
  </g>
</svg>
